<svg width="730" height="1080" viewBox="0 0 730 1080" fill="none" xmlns="http://www.w3.org/2000/svg">
<g clip-path="url(#clip0_244_2)">
<mask id="mask0_244_2" style="mask-type:luminance" maskUnits="userSpaceOnUse" x="0" y="0" width="730" height="1080">
<path d="M730 0H0V1080H730V0Z" fill="white"/>
</mask>
<g mask="url(#mask0_244_2)">
<path fill-rule="evenodd" clip-rule="evenodd" d="M675.834 558.108C650.505 555.334 613.899 554.132 572.855 561.592C562.376 563.498 552.31 565.47 542.603 567.494C508.636 574.578 479.085 582.3 451.608 590.01C417.242 599.654 386.119 609.28 353.661 617.616C321.912 625.77 288.885 632.692 250.295 637.194C223.676 640.298 194.409 642.25 161.089 642.662C115.368 643.226 80.3467 642.506 54.166 641.34V1025.83H675.834V558.108Z" fill="#BFE0F3"/>
<path fill-rule="evenodd" clip-rule="evenodd" d="M730 516.776V1080H0V586.874C6.33478 587.802 23.0274 589.862 54.166 591.304C79.3956 592.474 114.105 593.238 160.472 592.666C338.655 590.468 398.385 542.488 563.913 512.398C607.573 504.462 646.91 505.112 675.834 507.882C706.498 510.82 725.46 516.142 725.46 516.142C726.974 516.57 728.499 516.776 730 516.776ZM675.834 558.108C650.505 555.334 613.899 554.132 572.855 561.592C562.376 563.498 552.31 565.47 542.603 567.494C508.636 574.578 479.085 582.3 451.608 590.01C417.242 599.654 386.119 609.28 353.661 617.616C321.912 625.77 288.885 632.691 250.295 637.193C223.676 640.297 194.409 642.249 161.089 642.661C115.368 643.225 80.3466 642.505 54.166 641.34V1025.83H675.834V558.108Z" fill="#363435"/>
<path fill-rule="evenodd" clip-rule="evenodd" d="M0 553.329V0H730V482.904C721.698 480.898 702.442 476.782 675.834 474.428C644.687 471.672 603.471 471.328 557.953 479.602C394.656 509.286 335.84 557.165 160.061 559.333C113.156 559.913 78.6717 559.117 54.166 557.951C17.3132 556.199 3.03558 553.611 3.03558 553.611C2.01561 553.423 1.00172 553.331 0 553.329ZM564.371 427.88C606.727 421.628 645.178 421.84 675.834 424.276V54.1659H54.166V507.932C77.4063 509.08 111.514 509.93 159.444 509.338C161.2 509.316 162.946 509.29 164.678 509.26C161.969 496.01 160.545 482.296 160.545 468.252C160.545 355.708 251.917 264.338 364.461 264.338C463.183 264.338 545.616 334.646 564.371 427.88ZM506.884 421.9C487.348 361.91 430.933 318.504 364.461 318.504C281.812 318.504 214.713 385.604 214.713 468.252C214.713 475.656 215.251 482.934 216.291 490.052C332.657 480.432 393.616 447.004 506.884 421.9Z" fill="#363435"/>
<path fill-rule="evenodd" clip-rule="evenodd" d="M216.29 490.052C215.25 482.934 214.712 475.656 214.712 468.252C214.712 385.604 281.812 318.504 364.46 318.504C430.932 318.504 487.348 361.91 506.884 421.9C393.614 447.004 332.656 480.432 216.29 490.052Z" fill="#FE8B3F"/>
</g>
</g>
<defs>
<clipPath id="clip0_244_2">
<rect width="730" height="1080" fill="white"/>
</clipPath>
</defs>
</svg>
